# xmcd
#
# Track frame offsets:
#	150
#	22275
#	50810
#	78315
#	97025
#	121610
#	145785
#	167475
#	186825
#	212525
#	232000
#
# Disc length: 3364 seconds
#
# Revision: 7
# Processed by: cddbd v1.5.2PL0 Copyright (c) Steve Scherf et al.
# Submitted via: EZCDAudioConverter 1.0.4.1
#
DISCID=940d220b
DTITLE=TriContinental - Tri-Continental
DYEAR=2000
DGENRE=Blues
TTITLE0=Waiting
TTITLE1=Scarecrow Murders
TTITLE2=MBO
TTITLE3=Red Moon
TTITLE4=These Blues
TTITLE5=Bill Miner
TTITLE6=Fiderana
TTITLE7=The Chant
TTITLE8=The House
TTITLE9=Precious Love
TTITLE10=Yesterday Is Gone
EXTD=
EXTT0=
EXTT1=
EXTT2=
EXTT3=
EXTT4=
EXTT5=
EXTT6=
EXTT7=
EXTT8=
EXTT9=
EXTT10=
PLAYORDER=
